<?xml version="1.0" encoding="UTF-8" standalone="no"?>
<!-- Created with Inkscape (http://www.inkscape.org/) -->

<svg
   xmlns:dc="http://purl.org/dc/elements/1.1/"
   xmlns:cc="http://creativecommons.org/ns#"
   xmlns:rdf="http://www.w3.org/1999/02/22-rdf-syntax-ns#"
   xmlns:svg="http://www.w3.org/2000/svg"
   xmlns="http://www.w3.org/2000/svg"
   xmlns:sodipodi="http://sodipodi.sourceforge.net/DTD/sodipodi-0.dtd"
   xmlns:inkscape="http://www.inkscape.org/namespaces/inkscape"
   width="600"
   height="600"
   id="svg4111"
   version="1.1"
   inkscape:version="0.48.4 r9939"
   sodipodi:docname="application.svg"
   inkscape:export-filename="/home/hhrutz/Documents/devel/ScalaColliderSwing/icons/application.png"
   inkscape:export-xdpi="76.800003"
   inkscape:export-ydpi="76.800003">
  <defs
     id="defs4113">
    <filter
       id="filter3791"
       inkscape:label="Neon"
       inkscape:menu="Bevels"
       inkscape:menu-tooltip="Neon light effect"
       x="-0.25"
       y="-0.25"
       width="1.5"
       height="1.5"
       color-interpolation-filters="sRGB">
      <feGaussianBlur
         id="feGaussianBlur3793"
         stdDeviation="1"
         result="result1" />
      <feComposite
         id="feComposite3795"
         in2="result1"
         in="result1"
         result="result4"
         operator="in" />
      <feGaussianBlur
         id="feGaussianBlur3797"
         stdDeviation="7"
         result="result6"
         in="result4" />
      <feComposite
         id="feComposite3799"
         in2="result4"
         operator="over"
         in="result6"
         result="result8" />
      <feComposite
         id="feComposite3801"
         in2="result8"
         operator="in"
         result="fbSourceGraphic"
         in="result6" />
      <feSpecularLighting
         id="feSpecularLighting3803"
         specularExponent="45"
         specularConstant="2"
         surfaceScale="2.5"
         lighting-color="#ffffff"
         result="result1"
         in="fbSourceGraphic">
        <fePointLight
           id="fePointLight3805"
           z="20000"
           y="-10000"
           x="-5000" />
      </feSpecularLighting>
      <feComposite
         id="feComposite3807"
         in2="fbSourceGraphic"
         operator="in"
         result="result2"
         in="result1" />
      <feComposite
         k4="0"
         k1="0"
         id="feComposite3809"
         in2="result2"
         k3="1.5"
         k2="1.2"
         operator="arithmetic"
         result="result4"
         in="fbSourceGraphic" />
      <feComposite
         id="feComposite3811"
         in2="result4"
         operator="over"
         result="result9" />
      <feBlend
         id="feBlend3813"
         in2="result9"
         mode="screen" />
    </filter>
  </defs>
  <sodipodi:namedview
     id="base"
     pagecolor="#ffffff"
     bordercolor="#666666"
     borderopacity="1.0"
     inkscape:pageopacity="0.0"
     inkscape:pageshadow="2"
     inkscape:zoom="0.7"
     inkscape:cx="288.04066"
     inkscape:cy="281.23995"
     inkscape:document-units="px"
     inkscape:current-layer="layer1"
     showgrid="false"
     inkscape:window-width="1440"
     inkscape:window-height="834"
     inkscape:window-x="0"
     inkscape:window-y="27"
     inkscape:window-maximized="1" />
  <metadata
     id="metadata4116">
    <rdf:RDF>
      <cc:Work
         rdf:about="">
        <dc:format>image/svg+xml</dc:format>
        <dc:type
           rdf:resource="http://purl.org/dc/dcmitype/StillImage" />
        <dc:title></dc:title>
      </cc:Work>
    </rdf:RDF>
  </metadata>
  <g
     inkscape:label="Layer 1"
     inkscape:groupmode="layer"
     id="layer1"
     transform="translate(0,-452.36218)">
    <path
       inkscape:connector-curvature="0"
       transform="matrix(1.4241157,0,0,1.4244011,550.96503,1629.5898)"
       style="fill:#ffffff;fill-opacity:1;fill-rule:evenodd;stroke:none;filter:url(#filter3791)"
       d="m -197.25863,-818.63355 c -6.15046,1.22023 -12.29929,2.44868 -18.45074,3.66379 -0.99719,10.49515 -2.729,21.03572 -3.21899,31.51282 0.65053,4.23132 -6.33277,5.30258 -8.95461,8.17923 -4.44718,2.9677 -8.89434,5.93534 -13.34151,8.90297 -6.44166,-3.89876 -14.41099,-4.54079 -21.46153,-7.14392 -3.53856,-0.32224 -8.2479,-3.80517 -11.07407,-2.22409 -3.488,5.22171 -6.9784,10.44186 -10.46493,15.66455 6.74106,8.11555 12.95734,16.83557 20.04497,24.56485 3.4189,2.53215 -0.75387,8.21763 -0.5756,12.09582 -1.0489,5.23596 -2.09782,10.47184 -3.14672,15.7078 -7.30428,1.83768 -13.38944,6.99388 -20.20844,10.15225 -2.73275,2.28215 -8.52441,3.14444 -9.40927,6.28009 1.21881,6.16535 2.45666,12.32699 3.66382,18.49462 10.5218,0.93952 21.07837,2.71179 31.57814,3.17287 4.1932,-0.60908 5.27234,6.34419 8.14002,8.95406 2.96626,4.44079 5.93251,8.88158 8.89876,13.32236 -3.83868,6.20312 -4.40628,13.94831 -6.93997,20.76776 -0.57583,3.74956 -3.4258,8.35392 -2.69948,11.6088 5.31256,3.54777 10.62272,7.09914 15.93596,10.64591 8.12301,-6.73546 16.80236,-12.98068 24.56626,-20.04407 2.5305,-3.45872 8.22749,0.73056 12.11639,0.55276 5.23593,1.04891 10.47186,2.09782 15.70779,3.14672 1.68808,7.10353 6.75287,12.98047 9.79203,19.59327 2.25504,3.04388 3.45442,8.33266 6.31954,10.08421 6.25752,-1.23935 12.51151,-2.49691 18.77151,-3.72359 0.93952,-10.5218 2.7118,-21.07837 3.17287,-31.57814 -0.60907,-4.1932 6.34419,-5.27234 8.95407,-8.14002 4.44079,-2.96626 8.88157,-5.93251 13.32236,-8.89876 6.21039,3.85427 13.9752,4.42581 20.81054,6.96568 3.74204,0.57293 8.3407,3.42623 11.58795,2.69571 3.547772,-5.31256 7.099147,-10.62272 10.645914,-15.93596 -6.741652,-8.13176 -12.997149,-16.81453 -20.065114,-24.58954 -3.38135,-2.55377 0.76602,-8.21727 0.58879,-12.0945 1.04391,-5.22815 2.08782,-10.45631 3.131739,-15.68446 7.315834,-1.8233 13.404446,-6.99284 20.230374,-10.15227 2.732754,-2.28215 8.524406,-3.14441 9.409272,-6.28004 -1.218807,-6.1654 -2.456664,-12.32701 -3.66382,-18.49465 -10.521802,-0.93949 -21.078371,-2.71181 -31.578135,-3.17285 -4.19325,0.6091 -5.2738,-6.34322 -8.1421,-8.95267 -2.97287,-4.44861 -5.94575,-8.89714 -8.91863,-13.34568 3.86676,-6.19306 4.4131,-13.96559 6.95273,-20.79239 0.56978,-3.74052 3.41866,-8.33915 2.68673,-11.58424 -5.31199,-3.54127 -10.62398,-7.08262 -15.93596,-10.6239 -8.11429,6.72921 -16.79018,12.96419 -24.54298,20.02301 -2.53221,3.41926 -8.22027,-0.74052 -12.0996,-0.55651 -5.24198,-1.04065 -10.48395,-2.0813 -15.72593,-3.12195 -1.80648,-7.32792 -6.99427,-13.41862 -10.15337,-20.25167 -2.22756,-2.60397 -3.19105,-8.6463 -6.25703,-9.36604 z m 13.2073,48.90217 c 27.97526,-0.56431 54.67356,19.12025 62.39294,45.89052 8.03237,25.19584 -1.26882,54.44791 -22.38561,70.35175 -21.06312,16.74562 -52.65727,18.05245 -75.06592,3.01835 -22.49485,-14.22493 -34.141,-43.13002 -27.81871,-68.97633 5.48748,-25.19655 27.51555,-45.79847 53.07055,-49.47258 3.22821,-0.52268 6.50741,-0.77225 9.80675,-0.81171 z m -0.68011,40.58716 c -13.92398,0.16098 -25.50107,14.05897 -23.05793,27.81871 1.59481,14.0548 17.06725,24.14458 30.64884,19.92069 13.29631,-3.29811 21.4074,-19.09929 16.27877,-31.87743 -3.48948,-9.75259 -13.49288,-16.4236 -23.86968,-15.86197 z m 117.944311,86.37406 c -3.989548,7.68362 -8.750812,15.08806 -12.287636,22.93545 -1.92822,3.27635 -8.25693,2.17363 -11.967677,3.67612 -3.720738,-0.28344 -9.365638,4.08891 -11.658908,0.35152 -6.75157,-5.58544 -13.69237,-11.01702 -20.53494,-16.5201 -4.72475,3.15109 -9.44788,6.30463 -14.17263,9.45573 2.95146,8.73817 4.57553,18.08817 8.23813,26.48594 -0.90924,3.87819 -4.93698,7.75429 -7.05206,11.63166 -2.60881,2.29002 -3.34194,8.88756 -7.61421,7.29622 -8.60024,0.94217 -17.19944,1.89384 -25.80031,2.83014 -1.10021,5.58207 -2.24166,11.15603 -3.33474,16.73949 8.2475,4.1056 15.99872,9.54853 24.52137,12.896 2.10169,3.12522 1.92096,8.52259 3.13824,12.52822 -0.29469,3.5557 4.08837,9.0744 0.0494,11.06041 -5.44132,6.82679 -10.93066,13.61593 -16.36653,20.44719 3.14946,4.71853 6.30628,9.43215 9.45573,14.15069 8.73817,-2.95146 18.08818,-4.57553 26.48594,-8.23813 3.87913,0.90783 7.75701,4.93291 11.63566,7.04608 2.29917,2.6137 8.93607,3.35411 7.29222,7.64213 0.95695,8.59936 1.86481,17.20455 2.85208,25.80031 5.573797,1.09776 11.143745,2.21506 16.717549,3.3128 4.135882,-7.99934 9.070509,-15.70241 12.771692,-23.85662 1.958982,-3.24214 8.255333,-2.15928 11.96628,-3.65444 3.720116,0.28896 9.393962,-4.11078 11.658905,-0.32959 6.744688,5.58491 13.676964,11.01799 20.513008,16.5201 4.726383,-3.15596 9.446234,-6.32171 14.172623,-9.47766 -2.738932,-8.56062 -4.679009,-17.48699 -7.806526,-25.85679 -0.962256,-3.68866 4.29611,-7.38389 5.856624,-11.07523 2.82722,-2.42327 3.729027,-9.52756 7.98314,-8.48181 8.7328272,-0.8138 17.483171,-1.89112 26.217159,-2.85207 1.097758,-5.57381 2.215059,-11.14376 3.312796,-16.71756 -8.231936,-4.101 -15.9756241,-9.51412 -24.4774978,-12.87406 -2.1038183,-3.1248 -1.9273877,-8.5213 -3.1476507,-12.52634 0.2865555,-3.5762 -4.1102255,-9.10845 -0.039989,-11.10617 5.426829,-6.81205 10.9009881,-13.58701 16.32265,-20.40331 -3.1494592,-4.71853 -6.3062786,-9.43215 -9.4557287,-14.15069 -8.5606129,2.73894 -17.4869878,4.67901 -25.8567828,7.80653 -3.688061,0.96135 -7.380179,-4.30167 -11.069885,-5.86462 -2.441931,-2.83791 -9.518738,-3.73809 -8.509095,-8.01902 -0.791218,-8.71765 -1.886377,-17.44942 -2.786259,-26.17328 -5.574476,-1.10168 -11.14307,-2.2331 -16.717553,-3.33474 l -0.343478,0.61229 -0.16112,0.28721 z m -210.000541,21.67578 c -5.74823,1.13984 -11.49491,2.28752 -17.24409,3.42249 -0.91849,9.8223 -2.5658,19.68998 -2.97891,29.49463 0.23368,3.96908 -6.44079,5.0762 -9.01142,7.88349 -3.87203,2.59081 -7.74406,5.18162 -11.61609,7.77244 -6.42412,-3.73198 -14.26888,-4.42601 -21.24541,-6.97907 -3.51192,-0.17701 -8.64481,-4.87033 -10.26843,0.10687 -2.87025,4.28761 -5.74556,8.57184 -8.61267,12.86156 6.31695,7.57357 12.108,15.75556 18.77358,22.93978 3.01745,2.61254 -0.9571,8.14353 -0.78883,11.94531 -0.91237,4.56996 -1.82474,9.13993 -2.73711,13.70989 -7.17394,1.94804 -13.22128,6.95123 -19.95777,10.08543 -2.60928,2.35056 -9.56417,2.66369 -7.18677,7.33758 1.00278,5.05238 2.0141,10.10306 3.01159,15.15647 9.82229,0.91849 19.68998,2.5658 29.49462,2.97891 3.9692,-0.23376 5.07778,6.43974 7.88573,9.00993 2.59738,3.87984 5.19476,7.75968 7.79214,11.63952 -3.67451,5.92913 -4.19221,13.37263 -6.631,19.89712 -0.0314,3.45084 -4.5351,8.53688 -1.45121,10.83465 4.67611,3.12394 9.35053,6.25043 14.02769,9.3728 7.58572,-6.30673 15.74057,-12.11325 22.96173,-18.75164 2.61252,-3.01736 8.14325,0.95842 11.94493,0.79071 4.56277,0.91175 9.12555,1.82349 13.68833,2.73523 1.91454,7.1978 6.97127,13.24039 10.1107,19.98777 2.34023,2.60041 2.67701,9.52257 7.33435,7.15731 5.05964,-1.00306 10.11772,-2.01393 15.17831,-3.01213 0.91806,-9.82271 2.56942,-19.68838 2.98014,-29.49487 -0.25598,-3.9887 6.43597,-5.09074 9.01169,-7.90295 3.86421,-2.58424 7.72843,-5.16849 11.59264,-7.75273 6.19708,3.69026 13.83586,4.30303 20.59726,6.79108 3.43884,-0.0121 8.65618,4.8765 10.54653,0.66354 2.99392,-4.48154 5.99038,-8.96139 8.98273,-13.44398 -6.29838,-7.57232 -12.10026,-15.70918 -18.72871,-22.91936 -3.05981,-2.61014 0.92833,-8.15495 0.75649,-11.96761 0.9082,-4.56933 1.81639,-9.13868 2.72458,-13.70802 7.2093,-1.90004 13.25273,-6.97524 20.00607,-10.11732 2.60774,-2.33767 9.51741,-2.68359 7.13794,-7.34946 -1.00396,-5.03751 -2.00582,-10.07545 -3.01106,-15.1127 -9.80043,-0.92141 -19.64619,-2.58614 -29.42856,-2.9996 -4.04381,0.36042 -5.12692,-6.41958 -7.94895,-9.00578 -2.5837,-3.88163 -5.1674,-7.76327 -7.75111,-11.64491 3.72933,-6.42572 4.44174,-14.26331 6.99773,-21.23998 0.18076,-3.50554 4.87526,-8.63456 -0.10573,-10.24871 -4.29386,-2.86454 -8.58715,-5.72993 -12.88136,-8.59395 -7.57245,6.31099 -15.75681,12.09189 -22.93978,18.75165 -2.61254,3.01745 -8.14353,-0.9571 -11.94531,-0.78883 -4.56996,-0.91238 -9.13993,-1.82475 -13.70989,-2.73712 -1.93095,-7.18606 -6.957,-13.23317 -10.09203,-19.97609 -1.8425,-2.00315 -2.61649,-7.48503 -5.2653,-7.57935 z m 199.294286,19.26248 c 23.334563,-0.62399 45.670094,15.3822 52.544015,37.71322 7.779911,23.13153 -2.25145,50.60748 -23.368697,63.02899 -21.179611,13.52757 -51.201155,9.45335 -68.096994,-9.1502 -16.31633,-16.85152 -19.4358,-44.54456 -7.28996,-64.67105 9.34694,-16.23162 27.453332,-26.79395 46.211636,-26.92096 z m -186.438006,26.41461 c 25.98265,-0.28129 50.57038,18.24948 57.50224,43.15411 7.59798,24.5009 -2.57509,52.84247 -23.95744,66.91408 -21.05834,14.73613 -51.48727,13.60664 -71.30583,-2.7588 -20.70924,-15.91802 -28.44672,-45.96504 -18.22742,-69.88138 8.90705,-22.4 31.86507,-37.77239 55.98845,-37.42801 z m 186.284433,7.26183 c -12.630821,0.15342 -22.572953,13.43358 -19.218604,25.58092 2.395985,11.32902 15.541384,18.73595 26.480428,14.8308 11.5792,-3.34455 17.828557,-17.79428 12.373622,-28.49882 -3.449098,-7.4877 -11.379815,-12.31917 -19.635446,-11.9129 z m -187.513023,30.25394 c -13.23591,0.20359 -24.04797,13.55471 -21.41251,26.59012 1.86436,12.85464 16.1003,21.90799 28.58658,17.99002 12.45396,-3.11271 19.97253,-18.02546 15.03765,-29.92932 -3.26243,-9.00685 -12.61291,-15.19777 -22.21172,-14.65082 z"
       id="path2861"
       inkscape:export-filename="/Users/rutz/Desktop/rect3833.png"
       inkscape:export-xdpi="19.018501"
       inkscape:export-ydpi="19.018501" />
    <path
       sodipodi:type="arc"
       style="fill:#ffffff;fill-opacity:0.50196078;fill-rule:evenodd;stroke:none"
       id="path3107-3"
       sodipodi:cx="-53.169857"
       sodipodi:cy="-782.90686"
       sodipodi:rx="78.598915"
       sodipodi:ry="78.598915"
       d="m 25.429058,-782.90686 c 0,43.40898 -35.1899329,78.59891 -78.598915,78.59891 -43.408982,0 -78.598913,-35.18993 -78.598913,-78.59891 0,-43.40898 35.189931,-78.59892 78.598913,-78.59892 43.4089821,0 78.598915,35.18994 78.598915,78.59892 z"
       transform="matrix(1.1629744,0,0,1.1629744,351.67614,1532.7161)" />
    <g
       id="g3276"
       transform="translate(-75.159039,219.85329)">
      <path
         style="fill:#9d9d9d"
         d="m 355.72263,499.18316 c -0.62796,-0.0874 -3.11125,-0.42802 -5.51842,-0.75706 -87.42598,-11.95044 -113.26512,-128.39436 -39.31216,-177.16002 73.69307,-48.59428 169.26163,19.65538 147.39749,105.26296 -11.58414,45.35695 -58.72814,78.75179 -102.56691,72.65412 z m 20.51056,-12.1877 c 46.99844,-6.4609 79.59691,-50.07036 73.1396,-97.84444 -0.16487,-1.21974 -0.15944,-1.22405 2.10743,-1.67002 l 2.27272,-0.44713 -0.23632,-1.75521 c -3.62292,-26.90825 -27.84064,-57.9532 -51.80385,-66.40792 l -1.57989,-0.55742 -3.52153,8.05764 c -7.88082,18.03216 -22.0426,50.11708 -23.38412,52.97904 l -1.4332,3.05757 -2.51729,-0.657 c -2.89118,-0.75459 -6.61602,-0.82683 -9.36773,-0.18166 -2.31564,0.54292 -2.34204,-0.0142 0.40928,8.63638 1.14662,3.60513 2.03739,6.58625 1.97949,6.62473 -2.89711,1.92494 -3.72194,3.21239 -3.71938,5.80538 0.005,5.20889 7.56021,7.53287 10.5749,3.2529 0.7254,-1.02987 0.92303,-1.54486 1.37284,-3.57746 0.19728,-0.89144 0.49705,-1.05471 2.69944,-1.47027 1.36264,-0.25711 2.47751,-0.59781 2.47751,-0.75711 0,-0.81048 -1.27076,-3.71759 -2.10065,-4.80563 -0.5192,-0.68069 -0.94399,-1.40383 -0.94399,-1.60696 0,-2.16689 43.41384,-43.44819 45.69266,-43.44819 0.7567,0 3.40221,2.41034 3.40221,3.09978 0,0.2037 0.17126,0.26452 0.38058,0.13515 0.20931,-0.12936 0.38058,-0.006 0.38058,0.2733 0,0.27969 0.50404,1.06038 1.1201,1.73488 0.61607,0.6745 1.41816,1.73092 1.78244,2.34761 0.36429,0.61668 0.82864,1.01846 1.03189,0.89284 0.20326,-0.12562 0.26504,-0.0593 0.13729,0.14741 -0.12774,0.20669 0.22378,1.04664 0.78116,1.86656 0.55738,0.81991 1.72085,2.73164 2.58547,4.24829 0.86463,1.51664 1.71293,2.62984 1.88512,2.47377 0.17219,-0.15607 0.19714,-0.0815 0.0555,0.16582 -0.30045,0.52435 0.86668,3.16593 1.3988,3.16593 0.1986,0 1.01775,-0.19674 1.82034,-0.43721 2.32158,-0.69556 2.9328,0.20181 5.43076,7.97331 9.90801,30.82507 -0.68324,66.07848 -25.8637,86.08847 -49.928,39.67596 -122.28953,9.7082 -129.57871,-53.66364 -0.83778,-7.28358 0.23651,-21.10368 1.87863,-24.16751 l 0.63744,-1.18933 28.88609,6.38841 c 15.88735,3.51362 29.00333,6.57811 29.14663,6.80998 0.1433,0.23186 0.55272,-0.47167 0.90981,-1.56342 0.8091,-2.47369 2.12389,-1.60294 -12.25229,-8.11435 -28.71587,-13.00629 -37.38799,-17.67886 -37.3823,-20.1417 0.005,-2.14239 6.8257,-12.25595 11.81357,-17.51675 l 3.30791,-3.48893 -2.84522,-3.71188 c -3.39796,-4.43298 -2.97221,-4.36811 -6.25244,-0.95267 -55.96773,58.27461 -6.75591,154.91185 73.28447,143.90866 z"
         id="path3282"
         inkscape:connector-curvature="0" />
      <path
         style="fill:#5e5e5e"
         d="m 355.72263,499.18316 c -0.62796,-0.0874 -3.11125,-0.42802 -5.51842,-0.75706 -87.42598,-11.95044 -113.26512,-128.39436 -39.31216,-177.16002 73.69307,-48.59428 169.26163,19.65538 147.39749,105.26296 -11.58414,45.35695 -58.72814,78.75179 -102.56691,72.65412 z m 21.81253,-6.43994 c 74.36934,-10.37274 104.70843,-102.52595 51.2235,-155.5884 -9.70812,-9.63143 -28.47583,-21.358 -30.09752,-18.80574 -0.16625,0.26165 -3.42175,7.5466 -7.23444,16.18879 -7.75722,17.58321 -9.71197,21.6084 -10.45551,21.5298 -0.28096,-0.0297 -2.19041,-0.49834 -4.24321,-1.04141 -8.34821,-2.20854 -24.69616,-1.8105 -27.16815,0.66149 -0.51212,0.51211 2.92277,12.003 8.9985,30.10308 3.94388,11.74911 3.76961,10.82513 2.22825,11.8141 -3.89831,2.50125 -3.17057,8.54242 1.27145,10.55461 l 1.90468,0.8628 -0.12395,2.47377 -0.12395,2.47378 1.90291,-0.11811 c 8.7678,-0.54418 13.72389,-11.54847 8.3653,-18.57395 -1.34612,-1.76485 -1.81641,-1.15615 8.66567,-11.21588 13.05568,-12.52964 16.5329,-15.41513 17.51034,-14.53055 1.79079,1.62064 5.29052,6.80669 8.48296,12.57039 0.13831,0.24971 6.21188,-1.8583 16.88059,-5.85891 13.46001,-5.04731 12.25088,-5.08308 14.07447,0.4164 14.99523,45.22166 -12.22833,93.44766 -57.99496,102.73695 -5.45534,1.10728 -15.59591,1.94379 -18.79339,1.5503 l -2.04786,-0.25201 0.19918,-2.19662 0.19919,-2.19663 -2.98514,-0.23019 c -31.6086,-2.43748 -59.34507,-27.15065 -65.80792,-58.63482 -1.48382,-7.22853 -2.06771,-17.58131 -1.03968,-18.4345 0.59352,-0.49257 20.13624,1.2559 23.14688,2.07094 0.48685,0.1318 0.67093,0.93446 0.88588,3.86266 0.5943,8.09623 1.75166,12.26983 3.40211,12.2685 1.33856,-0.001 6.25005,-1.26665 11.69206,-3.01274 5.06819,-1.62615 4.99784,-1.64105 6.40018,1.35568 4.09187,8.74412 12.52489,15.3475 22.29427,17.45727 1.67455,0.36164 3.25872,0.71711 3.52037,0.78996 0.30638,0.0853 0.47572,0.87269 0.47572,2.21192 0,2.53771 0.3251,2.70581 4.5182,2.3362 6.77702,-0.59735 13.61474,-3.10248 18.61923,-6.82148 2.94797,-2.19075 2.78076,-2.2772 7.20607,3.72591 2.92985,3.97446 2.06953,5.16386 -7.18041,9.92691 -4.55206,2.34398 -4.75397,2.63423 -4.12815,5.93417 0.63966,3.37293 0.60285,3.40293 -5.90491,4.81305 -1.5752,0.34132 -4.8418,0.59706 -7.99219,0.62571 l -5.32813,0.0485 -0.10538,-5.38896 -0.10539,-5.38897 -1.9878,-0.25174 c -2.70644,-0.34275 -8.328,-1.86671 -11.20932,-3.03876 -3.19493,-1.29962 -3.57934,-1.24317 -4.99925,0.73401 -0.67088,0.93418 -1.37908,1.79697 -1.57379,1.9173 -0.82892,0.5123 -6.44317,-3.04761 -10.803,-6.85002 l -2.77424,-2.41955 -1.86935,1.08498 c -2.54482,1.47703 -8.14892,5.98486 -8.14892,6.55484 0,0.71492 5.16861,5.61152 8.63358,8.17923 8.52357,6.31637 18.46538,10.37755 28.81057,11.76898 2.53549,0.34103 4.82405,0.67778 5.0857,0.74836 0.30682,0.0828 0.47572,0.86602 0.47572,2.20606 l 0,2.07775 1.99805,0.24792 c 19.65461,2.43878 45.99329,-12.23044 57.83466,-32.21078 3.40988,-5.75361 3.70511,-5.02887 -3.69711,-9.07597 -8.06558,-4.40979 -9.4214,-5.31195 -9.10142,-6.05602 1.63885,-3.81098 3.58301,-11.48141 3.58301,-14.13634 0,-1.70099 -2.10307,-2.12729 -15.93745,-3.23059 -8.81178,-0.70275 -8.18678,-0.90241 -8.96045,2.86254 -2.16006,10.51158 -11.00979,18.40236 -21.23786,18.93655 l -3.70104,0.1933 0.23379,-2.50361 0.23379,-2.50361 -1.09971,-0.22456 c -12.14376,-2.47981 -19.24511,-13.35342 -15.55373,-23.81591 0.30956,-0.8774 0.56284,-1.82973 0.56284,-2.11629 0,-0.29542 -3.00738,-2.02062 -6.94559,-3.98436 -8.40049,-4.18883 -16.8075,-8.77815 -18.363,-10.02422 l -1.14174,-0.91462 0.72541,-1.26882 c 1.77483,-3.10439 4.36864,-6.68247 6.53394,-9.01337 l 2.34704,-2.52654 -1.73797,-2.28577 c -2.10572,-2.76944 -2.71572,-3.50613 -13.15853,-15.89153 -9.27657,-11.00221 -8.60951,-10.56903 -11.72129,-7.6116 -51.56814,49.01015 -20.28037,138.67992 51.16848,146.64729 l 4.09124,0.45622 0,2.20719 c 0,2.20495 10e-4,2.20734 1.23689,2.36068 3.25072,0.40341 13.16752,0.22662 16.96013,-0.30235 z"
         id="path3280"
         inkscape:connector-curvature="0" />
      <path
         style="fill:#1a1a1a"
         d="m 355.72263,499.18316 c -0.62796,-0.0874 -3.11125,-0.42802 -5.51842,-0.75706 -87.42598,-11.95044 -113.26512,-128.39436 -39.31216,-177.16002 73.69307,-48.59428 169.26163,19.65538 147.39749,105.26296 -11.58414,45.35695 -58.72814,78.75179 -102.56691,72.65412 z m 23.59598,-6.19202 c 68.42658,-11.99627 99.75627,-90.50247 58.32828,-146.15952 -8.08613,-10.86342 -22.73073,-22.68489 -34.50601,-27.85407 -5.39659,-2.36903 -5.17692,-2.39125 -6.53666,0.66114 -4.23908,9.51598 -6.55263,13.80446 -7.24681,13.43295 -8.32432,-4.45504 -29.04383,-5.51676 -42.6776,-2.18691 l -4.85644,1.18612 0.18612,2.23464 c 0.51244,6.15275 5.82602,22.95381 16.75796,52.98721 3.0954,8.50402 3.26543,9.1228 2.60704,9.48751 -1.22016,0.67589 -2.73089,2.51432 -3.17704,3.86618 l -0.42972,1.30209 -2.42915,-0.22684 c -5.51921,-0.5154 -2.49817,8.34297 3.99956,11.7276 10.94468,5.70103 22.74483,-9.81081 14.40183,-18.93186 l -0.73548,-0.80407 4.28909,-3.9047 4.28909,-3.9047 1.27637,1.47384 c 0.702,0.81061 1.71907,2.25999 2.26017,3.22085 1.38297,2.45585 1.70643,2.36924 25.94867,-6.94815 21.34251,-8.20289 25.95678,-9.89476 26.4598,-9.70173 1.89529,0.72729 5.13528,16.66371 5.15012,25.33176 l 0.007,4.33961 -13.79604,-0.2457 c -42.16366,-0.75092 -45.92876,-0.76836 -46.08326,-0.21352 -0.0817,0.29334 -0.35072,1.38965 -0.59785,2.43625 -1.63195,6.91124 -6.84575,12.32036 -13.56154,14.0696 -13.59728,3.54164 -25.73083,-9.7624 -21.12165,-23.1592 l 0.73311,-2.13082 -1.7861,-1.01118 c -0.98236,-0.55615 -2.1656,-1.24283 -2.62943,-1.52594 l -0.84331,-0.51475 0.78688,-1.33366 c 0.43278,-0.73352 1.52435,-2.15391 2.4257,-3.15642 l 1.63882,-1.82277 -3.67558,-4.56596 c -5.62101,-6.98268 -32.03437,-38.22966 -34.63632,-40.97473 -1.77523,-1.87289 -1.78948,-1.86932 -5.18305,1.2999 -14.02456,13.0974 -23.59586,32.81421 -25.89491,53.34334 l -0.24843,2.21831 -2.15721,-0.12511 -2.1572,-0.12512 -0.26609,2.28348 c -0.14635,1.25592 -0.38192,3.36642 -0.52349,4.69001 -1.38664,12.96431 5.39798,35.84806 14.82888,50.01613 19.92964,29.94037 56.69355,46.00025 91.38145,39.91891 z"
         id="path3278"
         inkscape:connector-curvature="0" />
    </g>
    <g
       transform="matrix(1.4244011,0,0,1.4244011,551.71355,1628.7709)"
       style="fill-rule:evenodd"
       id="g3314">
      <path
         style="fill:#e8cfd1"
         d="m -269.2313,-453.71129 c -16.52165,-1.70685 -32.7675,-9.30398 -43.10399,-22.57502 -16.96808,-19.75677 -18.56982,-51.20855 -2.76284,-72.10861 1.43816,-4.14366 10.83892,-7.30991 5.64641,-11.47514 -7.63233,-5.46376 5.90634,-10.67851 10.02469,-13.81656 18.96526,-11.30087 43.68426,-11.90394 63.16412,-1.48236 25.54699,12.46705 40.15127,43.29475 33.87308,70.97129 -4.27501,20.35302 -18.87482,38.34329 -38.37833,45.88082 -8.99016,3.76403 -18.75664,5.11878 -28.46314,4.60558 z m 6.12086,-57.66186 c 8.36479,-2.38775 3.3113,-15.79185 -4.60034,-13.48035 -6.13767,0.69212 -1.26907,4.45305 0.6809,6.47685 -3.13299,3.74879 -1.27192,8.05362 3.91944,7.0035 z m -15.3796,-16.59172 c 0.63919,-1.9558 -2.2759,0.34082 0,0 z m -3.66339,-9.28162 c 9.40207,-8.59593 24.96924,-8.79901 34.63204,-0.48266 2.30716,1.07918 -4.94735,-4.41412 -6.83729,-4.8388 -9.66265,-4.87928 -21.77412,-3.1286 -30.21332,3.37802 -2.83389,2.04707 1.03068,4.359 2.41857,1.94344 z m -12.13996,-3.94635 c 6.80539,-4.7834 -4.25136,-0.1451 0,0 z m -1.496,-11.20596 c 16.56947,-15.44675 44.56189,-15.76176 61.57412,-0.82253 2.5226,1.60489 -4.5773,-4.22978 -6.32425,-5.00396 -13.51901,-8.60957 -31.30048,-10.08261 -45.86785,-3.21413 -5.17586,2.17432 -10.15792,5.05802 -14.0717,9.13656 1.13006,3.40764 3.05441,1.89252 4.68968,-0.0959 z"
         id="path3344"
         inkscape:connector-curvature="0" />
      <path
         style="fill:#db9fa1"
         d="m -268.97077,-454.22697 c -17.23743,-1.309 -33.70769,-9.94852 -44.2198,-23.72757 -16.06038,-20.25527 -16.99039,-51.74905 -0.11333,-71.80904 3.48623,-4.16275 9.26268,-7.64898 2.48248,-11.77606 -2.8548,-6.02534 7.45517,-8.021 10.85706,-11.50667 17.40213,-10.29591 39.49607,-12.05958 58.19998,-4.25761 24.82799,9.73984 41.92622,36.10466 40.23207,62.79173 -1.06828,22.8613 -15.0414,44.89982 -36.10383,54.351 -9.69694,4.65678 -20.61375,6.64727 -31.33463,5.93422 z m 7.69487,-57.48795 c 6.61728,-4.0224 1.27155,-15.2041 -5.97952,-13.64879 -4.84652,-0.37464 -5.35514,4.37929 -0.85442,5.75605 0.61988,3.21364 -3.0509,8.90977 3.21022,8.71619 1.24032,0.12587 2.62415,0.0246 3.62372,-0.82345 z m -17.52973,-15.53134 c 2.66993,-4.57164 -4.41744,1.40765 -0.17623,0.11027 l 0.17623,-0.11027 z m 37.04887,-4.64767 c -7.26923,-12.5671 -24.44314,-17.36506 -37.42194,-11.17846 -2.99858,0.77129 -9.86338,5.55933 -4.38318,7.83652 10.31425,-11.64842 30.82343,-10.38016 39.99372,2.05845 0.33648,0.43468 3.45439,4.24431 1.8114,1.28349 z m -51.6239,-9.27342 c 2.5212,-7.33139 -7.80442,6.24641 -2.09064,1.82685 0.6951,-0.60811 1.30507,-1.32687 2.09064,-1.82685 z m 68.99106,-1.43164 c -11.30465,-19.2641 -36.71852,-28.55653 -57.77768,-21.03413 -7.00818,2.25301 -13.62265,5.96117 -18.84821,11.18642 5.21639,5.89001 9.63172,-5.85906 15.35839,-6.39176 19.49624,-10.14683 45.6801,-4.1054 58.62668,13.69396 0.40004,0.70723 4.86041,6.06559 2.64082,2.54551 z"
         id="path3342"
         inkscape:connector-curvature="0" />
      <path
         style="fill:#a09d9e"
         d="m -268.76462,-454.60605 c -28.37803,-1.34825 -53.77982,-25.33501 -56.22256,-53.73909 -1.68329,-16.30687 3.61933,-33.65103 15.61505,-45.10252 7.98367,-3.43619 -7.9466,-10.01153 0.74863,-13.241 13.97273,-11.41699 32.55129,-17.04174 50.49755,-14.58005 26.04844,2.96784 48.83545,23.45319 54.68134,48.99497 6.23133,25.83672 -5.31732,55.22325 -28.52785,68.68311 -10.94058,6.70568 -23.98737,9.93016 -36.79216,8.98458 z m 6.22469,-56.08659 c 7.86491,-2.60056 4.65473,-15.36848 -3.27125,-15.05485 -5.1243,-1.13789 -8.0631,4.67732 -2.36669,6.73275 -2.55531,5.04622 -0.89695,9.72451 5.63794,8.3221 z m -15.61439,-16.42946 c 0.98811,-6.30211 -6.05689,5.16191 -0.68697,0.32137 l 0.68697,-0.32137 z m 38.99523,-0.0594 c -4.44366,-12.60737 -18.30133,-20.76009 -31.4906,-18.5824 -5.66529,0.62392 -13.84909,3.88785 -15.84475,8.28278 4.00507,6.33313 8.16681,-5.14435 13.69023,-4.57456 12.11796,-4.16647 26.24051,1.85854 32.12827,13.08891 0.23158,0.24167 2.09731,3.63081 1.51685,1.78527 z m 19.1499,-7.03142 c -7.88815,-22.85907 -34.35693,-37.08889 -57.78702,-31.02334 -8.72242,1.98062 -17.05532,6.19687 -23.32715,12.64168 5.023,6.89247 9.94991,-6.12565 15.93609,-6.47745 18.62724,-9.32141 43.17671,-4.31709 56.45129,11.81938 3.77699,3.29488 8.48612,13.65366 9.11446,14.20587 l -0.38767,-1.16614 0,0 z m -71.88788,-8.2416 c -3.03358,-4.56004 -5.734,5.72406 -6.49955,6.75846 2.21251,-2.19901 4.57857,-4.2896 6.49955,-6.75846 z"
         id="path3340"
         inkscape:connector-curvature="0" />
      <path
         style="fill:#cd5f62"
         d="m -268.76462,-454.60605 c -28.37803,-1.34825 -53.77982,-25.33501 -56.22256,-53.73909 -1.68329,-16.30687 3.61933,-33.65103 15.61505,-45.10252 7.98367,-3.43619 -7.9466,-10.01153 0.74863,-13.241 13.97273,-11.41699 32.55129,-17.04174 50.49755,-14.58005 26.04844,2.96784 48.83545,23.45319 54.68134,48.99497 6.23133,25.83672 -5.31732,55.22325 -28.52785,68.68311 -10.94058,6.70568 -23.98737,9.93016 -36.79216,8.98458 z m 6.22469,-56.08659 c 7.86491,-2.60056 4.65473,-15.36848 -3.27125,-15.05485 -5.1243,-1.13789 -8.0631,4.67732 -2.36669,6.73275 -2.55531,5.04622 -0.89695,9.72451 5.63794,8.3221 z m 23.80551,-14.99588 c -3.7557,-13.41537 -18.21766,-22.36899 -31.91434,-20.07554 -5.67889,0.7484 -14.08242,3.71825 -15.89475,8.59615 5.97015,4.27538 11.04683,-6.64575 18.03102,-5.47994 11.88678,-1.8352 24.31462,5.33085 28.695,16.51936 0.2094,0.88431 1.84657,3.23618 1.08307,0.43997 z m -41.21594,-0.25452 c 5.38977,-0.90397 -1.54859,-6.568 -1.07013,-0.55424 -0.60533,0.78556 0.27096,2.57822 1.07013,0.55424 z m 61.00949,-4.47298 c -5.89379,-24.57667 -33.3897,-40.87702 -57.84323,-35.0396 -9.09475,1.87962 -17.82329,6.16752 -24.33926,12.86103 3.85403,6.90711 9.19384,-3.74539 13.87225,-4.80787 17.23135,-10.03178 40.85103,-6.90991 54.99598,7.12723 6.46603,5.90886 10.67514,13.77066 13.63564,21.89303 0.26029,-0.66345 -0.5043,-1.39133 -0.32138,-2.03382 z m -72.9562,-12.06592 c -3.34858,-6.73847 -9.93817,12.08813 -3.8134,4.16936 1.35309,-1.31105 2.66246,-2.67484 3.8134,-4.16936 z"
         id="path3338"
         inkscape:connector-curvature="0" />
      <path
         style="fill:#b15254"
         d="m -272.29045,-455.24867 c -24.34666,-2.84706 -45.81354,-21.92042 -51.12028,-45.91778 -4.36144,-18.51619 0.80052,-39.75894 15.35844,-52.50943 5.79628,-5.13792 -8.42798,-9.01974 -0.28208,-13.30627 7.98021,-5.24591 16.16736,-10.53918 25.6635,-12.59074 19.64353,-4.82991 41.64492,-0.63816 57.15363,12.6809 17.87493,14.30451 26.90592,38.63505 22.29322,61.10327 -4.11082,23.84813 -23.34248,44.15641 -47.00444,49.36268 -7.2217,1.7498 -14.69946,1.81626 -22.06199,1.17737 z m 10.80842,-55.62743 c 7.3286,-3.58816 3.13038,-15.60695 -4.61796,-15.12408 -5.14388,-1.0006 -8.36634,4.60575 -2.70486,6.88954 -2.88289,4.89636 0.63728,10.80981 6.5603,8.59311 l 0.76252,-0.35857 0,0 z m 23.89983,-11.5204 c -2.50404,-15.89637 -19.76048,-27.20616 -35.35937,-23.27445 -4.48307,1.49072 -15.34192,4.27849 -12.94016,9.69861 6.11471,1.71905 10.41641,-7.78244 17.51307,-6.7122 12.71891,-1.94393 25.55311,6.59033 29.49003,18.67946 0.003,-0.0498 1.50111,3.9335 1.29643,1.60858 z m -42.832,-2.43922 c 5.78409,-0.53113 0.8556,-8.53154 -0.43164,-2.30618 -0.21339,0.54402 -1.52058,4.41849 0.43164,2.30618 z m 62.5099,-3.2707 c -4.6757,-22.46557 -26.86559,-39.93516 -49.89665,-38.49591 -12.35352,-0.10896 -24.38662,5.22079 -33.39641,13.5248 2.50769,8.07198 9.53295,-2.94516 13.8499,-4.27069 17.12245,-10.02713 40.6029,-7.02767 54.80973,6.79062 7.48053,6.63586 11.77669,15.88357 14.95261,25.15328 0.0978,-0.91456 -0.22417,-1.80459 -0.31918,-2.7021 z m -79.64038,-7.58153 c 1.46857,-2.31846 9.51276,-7.07116 3.4288,-8.10285 -3.02919,1.11811 -5.92429,10.518 -4.2944,9.17033 l 0.8656,-1.06748 0,0 z"
         id="path3336"
         inkscape:connector-curvature="0" />
      <path
         style="fill:#d21d20"
         d="m -270.07409,-455.11867 c -24.25324,-2.03503 -46.35207,-20.0036 -52.63476,-43.63027 -5.45227,-19.24166 -0.42685,-41.87587 14.92425,-55.25925 5.83475,-5.17865 -9.25158,-8.44558 -0.4607,-12.4484 20.57966,-16.99004 51.94841,-19.92827 74.79926,-5.76366 18.897,11.27153 31.61718,32.5884 31.14957,54.76447 0.41564,26.28773 -17.70969,51.70859 -42.89313,59.46194 -8.00918,2.54365 -16.50886,3.47083 -24.88449,2.87517 z m 8.92769,-55.75388 c 7.42602,-4.01376 2.63574,-16.12079 -5.33808,-15.41102 -5.35987,-0.83272 -7.73825,5.28772 -2.2013,7.28722 -3.22231,4.88981 0.79368,11.04412 6.6947,8.54268 l 0.84468,-0.41888 0,0 z m 44.46543,-9.03237 c -0.57901,-23.58426 -20.57499,-44.73024 -44.07773,-46.74513 -13.12387,-1.57091 -26.61883,2.33221 -37.15338,10.2042 -6.35274,1.77182 -1.03601,11.26073 2.60845,5.01384 9.09399,-8.35527 21.54218,-12.96936 33.92544,-11.60352 23.97835,0.77842 44.20968,23.08342 44.25213,46.77597 0.38142,4.1786 0.66944,-3.3814 0.44509,-3.64536 z m -20.27105,1.5807 c -0.15449,-15.78291 -15.01282,-29.35968 -30.73538,-28.27544 -7.24015,0.23232 -14.2884,3.27565 -19.62057,8.14252 4.69769,8.91975 11.03892,-5.76524 17.9382,-4.03882 11.39187,-2.19799 23.42426,4.11506 28.73498,14.2863 2.44078,2.42457 2.47589,12.0223 3.61351,11.11498 0.0231,-0.40982 0.0463,-0.81978 0.0693,-1.22954 z m -43.60398,-6.3074 c 5.17079,0.30676 2.32813,-8.96525 0.11714,-3.46466 -0.24012,0.64366 -2.98181,6.88112 -0.11714,3.46466 z m -18.68958,-8.6186 c 1.48097,-3.00629 11.57286,-10.26801 4.4677,-10.34707 -2.0629,2.99982 -5.76952,9.90417 -5.09075,11.29607 0.20768,-0.31633 0.41537,-0.63267 0.62305,-0.949 z"
         id="path3334"
         inkscape:connector-curvature="0" />
      <path
         style="fill:#5c5859"
         d="m -269.88261,-455.27614 c -19.18781,-1.91784 -37.4962,-13.28925 -46.7306,-30.37923 -3.3869,-4.01954 -3.38091,-8.52879 2.75339,-9.38721 8.06278,-1.5581 3.23804,-8.98448 2.80586,-14.11172 -1.48387,-13.74627 3.82231,-28.21641 14.53552,-37.13383 -3.20734,-5.24837 6.28348,-8.09461 9.41717,-11.17376 16.64519,-9.61375 39.2352,-7.03619 53.43114,5.88473 9.75707,8.5022 15.93222,20.9315 16.56071,33.87899 0.89127,4.86282 0.5278,-5.44251 -0.008,-7.48376 -3.23814,-21.38748 -21.78279,-39.45382 -43.43184,-41.49001 -14.53743,-1.80898 -29.52662,3.27281 -40.50406,12.8496 -4.75604,0.35504 -7.8074,-7.00482 -10.1082,-10.07685 4.60799,-4.12442 9.97195,-7.64383 15.50073,-10.58027 22.617,-11.35652 51.96849,-8.39384 71.00537,8.63905 14.9172,12.53807 23.53935,32.09453 22.27655,51.5894 -0.98139,26.236 -20.4456,50.83928 -46.09942,56.99606 -6.975,1.76687 -14.22587,2.38266 -21.40444,1.97881 z m -20.97236,-50.41008 c 0.78413,-6.49075 -1.06708,-13.46416 2.43507,-19.42505 3.09463,-3.35725 6.49171,-6.1325 6.02406,-10.62025 6.67684,-6.4181 16.82184,-8.97798 25.67765,-5.90245 10.18698,3.08112 17.91085,12.50053 18.97686,23.08293 1.1868,5.93312 0.74936,-5.54165 -0.52872,-7.54252 -4.25717,-14.41389 -20.53605,-23.46275 -35.02616,-19.73317 -5.55119,0.77638 -9.9991,4.90959 -14.793,6.82584 -2.83541,-2.02787 -6.5764,-9.05674 -8.45792,-1.84165 -4.68658,9.47436 -8.30942,20.22848 -6.90289,30.92913 0.68429,4.55924 2.34107,11.60256 7.76122,6.4121 1.60347,-0.74537 3.2115,-1.48134 4.83383,-2.18491 z m 29.21849,-4.82993 c 7.95564,-3.57268 3.45868,-16.62322 -4.83615,-15.7115 -4.62321,1.89128 -10.0023,2.74135 -11.75244,-3.27795 -4.75276,1.20527 -3.89825,10.38822 -5.29097,14.84072 -0.14779,8.59241 7.60587,0.93931 11.83343,0.64979 3.55837,1.25555 4.91046,6.61013 10.04613,3.49894 z m -58.66233,16.82637 c -1.78766,-4.5742 2.30623,2.88034 0,0 z"
         id="path3332"
         inkscape:connector-curvature="0" />
      <path
         style="fill:#c71a1d"
         d="m -269.88261,-455.27614 c -19.18781,-1.91784 -37.4962,-13.28925 -46.7306,-30.37923 -3.3869,-4.01954 -3.38091,-8.52879 2.75339,-9.38721 8.06278,-1.5581 3.23804,-8.98448 2.80586,-14.11172 -1.48387,-13.74627 3.82231,-28.21641 14.53552,-37.13383 -3.30964,-5.60421 7.50426,-8.0735 10.76754,-11.16317 15.32042,-8.1843 34.99229,-6.55558 48.85428,3.82227 11.27878,8.10478 17.83117,21.44354 19.29349,35.06432 1.68374,6.92162 1.013,-5.07437 0.33785,-7.50587 -3.58773,-20.82438 -21.60042,-38.29802 -42.73587,-40.52861 -14.64114,-1.90813 -30.12683,2.8961 -40.95505,12.93175 -4.85637,0.17388 -7.38214,-6.97699 -10.3465,-9.85649 4.1106,-4.28442 9.53619,-7.53427 14.75879,-10.51237 22.73612,-11.85948 52.60199,-9.06702 71.88861,8.19591 14.9172,12.53807 23.53935,32.09453 22.27655,51.5894 -0.98139,26.23601 -20.44562,50.83928 -46.09944,56.99607 -6.97499,1.76687 -14.22585,2.38266 -21.40442,1.97878 z m -20.97236,-50.41008 c 0.78426,-6.49104 -1.06753,-13.46493 2.43591,-19.42588 2.06561,-3.27884 7.33832,-5.49009 5.39586,-9.68528 3.89158,-3.46275 8.94907,-5.98966 14.08875,-7.10641 11.92924,-2.14587 24.95341,5.00743 28.80496,16.67256 1.59714,2.3202 2.90023,14.14706 3.06173,6.69476 0.0356,-16.3279 -16.14438,-29.97394 -32.21602,-27.89774 -6.4499,0.52512 -12.69747,3.23729 -17.54182,7.43262 -3.82592,0.0788 -7.69926,-9.91518 -9.94309,-2.20977 -3.48665,6.25663 -4.90072,13.45105 -6.53743,20.36128 -1.07852,6.59201 -0.55954,13.69839 2.80928,19.59081 3.21034,-1.48339 6.39686,-3.01971 9.64187,-4.42695 z m 29.21849,-4.82993 c 8.03054,-3.55457 3.37709,-16.97115 -5.06625,-15.55819 -4.64857,1.92129 -9.8091,1.95257 -11.74373,-3.23849 -5.51627,1.25264 -3.31274,10.97784 -5.15629,15.61209 1.91004,9.28885 11.30384,-5.6529 14.92601,1.96932 0.82844,2.24845 5.18779,2.45936 7.04026,1.21527 z m -58.66233,16.82637 c -1.78766,-4.5742 2.30623,2.88034 0,0 z"
         id="path3330"
         inkscape:connector-curvature="0" />
      <path
         style="fill:#b71618"
         d="m -237.48733,-462.32461 c -3.14417,-4.22227 -5.09334,-14.54214 -12.03815,-8.67319 -19.24627,6.40432 -42.19929,-1.08527 -53.40503,-18.1315 -5.46245,-8.01201 -8.65856,-17.79558 -7.48998,-27.54256 -0.16516,-11.1247 5.50426,-21.96512 13.877,-29.12144 -2.86174,-5.61945 5.18961,-7.55053 8.50881,-10.40578 13.27896,-7.83195 30.39872,-8.79594 44.18813,-1.64615 14.47193,6.84485 23.9495,21.65453 25.92724,37.32361 0.49563,3.29246 1.75609,9.37115 1.62506,2.53607 0.0512,-22.4873 -17.26584,-43.71908 -39.4382,-47.9036 -12.92186,-2.794 -27.09498,-0.6475 -38.08936,6.88202 -4.35795,2.69312 -9.12718,8.62044 -12.67457,1.31769 -4.4255,-3.42435 -6.67952,-6.9544 -0.41644,-9.75896 21.37048,-16.78822 53.62779,-18.73402 76.09091,-2.92 16.98661,11.22784 28.17338,30.8494 28.21093,51.31842 0.57545,16.49973 -5.82252,33.04594 -17.59236,44.67108 -4.82067,4.94342 -10.35362,9.81694 -16.88443,12.11201 l -0.35576,-0.0514 -0.044,-0.006 1.9e-4,0 0,0 z m -20.97539,-14.01771 c 5.76955,-0.3435 14.82757,-3.35389 8.30898,-9.80431 -2.23348,-7.8494 -9.51892,-2.34824 -14.8877,-3.03637 -13.51906,-0.0635 -25.93141,-12.05864 -25.3218,-25.78436 -0.18141,-6.65636 3.56426,-12.63592 8.16772,-16.80609 -2.33149,-5.51312 6.71967,-7.63558 10.89664,-9.51095 11.84518,-3.63518 25.63569,2.89085 30.45373,14.30085 2.30779,3.35561 1.92796,9.1476 4.10342,11.65269 1.36673,-15.8209 -12.20419,-31.14872 -28.21994,-31.15597 -7.55764,-0.69021 -14.67548,1.75343 -20.50581,6.48456 -4.74402,2.93934 -7.77663,-8.90307 -11.30974,-1.54085 -4.04662,9.18977 -7.76809,19.08041 -7.50263,29.2818 0.9315,15.96522 12.62162,30.25795 27.87901,34.81423 5.75677,1.93542 11.98068,1.98826 17.93812,1.10477 z m -2.01977,-20.44487 c 8.85377,-1.81114 -5.55975,-10.22837 0.30588,-14.31606 5.49051,-4.29647 3.10474,-13.16047 -3.4677,-14.70134 -5.25499,-1.90783 -10.30473,4.43656 -13.21939,-2.29072 -6.14135,-5.26977 -5.09434,7.88093 -6.69413,11.25673 -2.37247,12.57053 11.23188,23.42312 23.07534,20.05139 z"
         id="path3328"
         inkscape:connector-curvature="0" />
      <path
         style="fill:#a91214"
         d="m -269.75235,-469.45533 c -23.12636,-2.06664 -42.73316,-24.12731 -40.71812,-47.53881 0.57783,-10.7904 5.4353,-21.37232 13.75164,-28.37338 -2.02124,-5.895 4.5676,-7.90136 8.58005,-10.78491 12.83318,-7.57994 29.24883,-8.78364 42.81674,-2.39768 14.12941,6.14611 24.14084,19.8328 26.88209,34.86477 3.65523,13.22146 -0.55767,27.68612 -9.52482,37.82756 -10.18743,11.88648 -26.2174,18.24603 -41.78758,16.40245 z m 10.47284,-6.36999 c 20.85784,-1.97051 37.70856,-22.37274 36.15349,-43.20513 -0.43867,-9.75862 -3.88173,-20.03471 -11.35763,-26.59588 -4.24971,0.90599 -7.97913,11.8073 -12.83167,5.0644 -11.04857,-8.31499 -28.20934,-8.82596 -38.54414,0.84659 -4.52908,0.97887 -8.28698,-9.45757 -10.9659,-1.37738 -3.59267,7.05262 -6.08525,14.78276 -7.34312,22.58394 -2.2,16.76133 8.37696,33.55568 23.81521,39.91196 6.57816,3.01308 13.95316,3.64615 21.07376,2.7715 z m -8.51889,-13.95768 c -15.35647,-1.23121 -27.11382,-19.01785 -20.72876,-33.41163 2.26268,-4.90591 7.56316,-7.84648 6.3227,-12.51645 6.2809,-4.39249 13.96995,-7.90199 21.82821,-6.21328 10.66092,1.53859 19.15554,10.21063 21.61126,20.54006 3.99935,10.47552 -1.91191,22.20966 -11.14514,27.65989 -5.28084,3.28637 -11.70016,4.86441 -17.88827,3.94141 z m 6.58193,-6.38168 c 12.13351,-1.45921 20.48838,-14.94571 17.09023,-26.55042 -0.10114,-7.20783 -6.98546,-10.84138 -10.57847,-3.47947 -5.00068,5.97072 -10.80182,-3.8239 -16.87399,0.86052 -4.41328,1.90878 -8.03805,-9.14847 -9.99859,-1.07264 -0.78484,5.50739 -3.9156,10.81883 -1.88121,16.45672 2.3727,9.41555 12.75027,15.87532 22.24203,13.78529 z m 18.16805,-40.75615 c 0.0959,-0.89611 0.71559,1.0002 0,0 z m 12.11244,-16.5512 c -16.0557,-14.97298 -42.32347,-18.71543 -61.16771,-6.82878 -4.82655,2.19175 -10.59579,10.70274 -14.55516,2.32675 -2.69713,-2.70071 -6.90976,-5.5732 -1.61395,-7.99019 20.70614,-17.55519 53.18393,-20.32531 75.83561,-4.84602 3.55402,3.12041 12.24586,7.01927 11.18703,11.21166 -2.97716,1.59602 -6.50344,9.35495 -9.68582,6.12658 z"
         id="path3326"
         inkscape:connector-curvature="0" />
      <path
         style="fill:#911719"
         d="m -271.57603,-469.84557 c -21.90415,-2.845 -40.02738,-23.69049 -38.74479,-45.93067 0.0952,-11.78499 5.6791,-23.48502 15.20941,-30.52353 0.95169,4.52406 -5.26805,8.56158 -5.41577,13.82696 -3.71283,9.0624 -5.65027,19.25036 -2.5575,28.7962 5.18247,17.95247 24.13828,30.55747 42.71701,28.28073 20.2963,-1.7014 37.5646,-20.16432 37.63572,-40.59435 0.90971,-17.50083 -10.2047,-34.52406 -26.27119,-41.29697 -15.6083,-6.68136 -34.99166,-3.47626 -47.49947,8.04546 1.70383,-3.89323 9.37748,-7.5826 14.19795,-9.77467 18.56553,-8.32393 41.96535,-2.06074 54.30427,13.97242 7.15715,9.04296 10.38142,20.74614 10.87887,32.12177 -0.99444,23.77594 -23.24613,44.1419 -46.9827,43.41394 -2.49404,0.0357 -4.99327,-0.0457 -7.47181,-0.33729 z m 3.07784,-20.18558 c -14.26063,-1.63248 -25.00152,-17.35198 -20.6868,-31.19603 1.13346,-3.50667 5.44804,-11.6299 9.41308,-9.07045 -3.35493,7.98922 -7.03637,17.9992 -1.33881,25.85016 4.62996,7.31096 14.02177,10.22766 22.2028,8.05534 11.88316,-2.8878 18.7881,-16.91241 14.65132,-28.25473 -3.57579,-11.07823 -16.15142,-18.02142 -27.45622,-15.0485 -3.62797,-0.0126 -8.85419,4.21951 -10.45638,4.40336 7.70716,-7.18261 20.0091,-9.22838 29.40608,-4.10985 10.09418,4.77423 15.41459,16.56317 15.12752,27.3125 -2.20141,14.20133 -16.76642,24.36396 -30.86259,22.0582 z"
         id="path3324"
         inkscape:connector-curvature="0" />
      <path
         style="fill:#5e1d1e"
         d="m -269.75235,-469.86873 c -22.29859,-2.14925 -41.39255,-22.88608 -40.36586,-45.51068 0.25407,-11.56678 5.25162,-23.48746 14.92188,-30.25574 -1.17505,6.4735 -6.21841,11.7987 -7.54465,18.4226 -5.8202,16.24993 0.64261,35.7211 15.12251,45.16405 16.11452,11.46541 40.12926,8.74598 53.43713,-5.8111 8.59545,-8.60708 12.70139,-20.97304 11.7276,-33.02085 -1.09534,-22.50217 -22.37449,-41.40201 -44.7861,-40.4472 -8.98596,0.13841 -17.7662,3.20811 -25.31155,7.99853 13.78435,-10.2036 33.16597,-12.52814 48.5677,-4.58711 13.94859,6.51829 23.22467,20.46175 25.80119,35.41335 4.11791,19.01785 -7.65092,38.85786 -24.46167,47.51633 -8.26612,4.55957 -17.80097,5.80282 -27.10818,5.11782 z m 0.9031,-20.51593 c -14.91928,-1.91127 -25.94207,-19.92198 -18.68618,-33.69319 0.20486,-3.85553 10.05898,-10.62041 6.5865,-3.29184 -3.27566,7.12476 -5.59047,16.1136 -0.5194,23.02302 6.44157,9.97484 21.61829,12.12105 30.52891,4.24023 9.95601,-7.75852 11.04042,-23.91264 2.20848,-32.93713 -7.00271,-8.03912 -19.43707,-10.06597 -28.81984,-5.2776 -3.51607,1.09814 5.27452,-3.15455 7.10666,-3.2124 13.07867,-3.56796 27.58411,5.26045 31.09176,18.216 3.8605,9.5884 -0.0248,20.85327 -8.00558,27.08078 -5.90155,4.88872 -13.92492,7.0811 -21.49131,5.85213 z"
         id="path3322"
         inkscape:connector-curvature="0" />
      <path
         style="fill:#2c292a"
         d="m -269.83702,-470.22248 c -20.24791,-2.21953 -38.1361,-19.3569 -39.77241,-39.90946 -1.28099,-12.92724 3.3611,-27.25427 14.25848,-34.92707 -0.66879,4.4679 -4.74244,9.24352 -6.17125,14.08863 -6.42915,13.78045 -4.18018,31.14872 6.16024,42.43377 12.07562,14.40361 34.37895,18.22561 50.72481,9.09844 17.54183,-8.7792 26.89812,-30.60792 21.33512,-49.38655 -4.01805,-15.61036 -17.01938,-28.44844 -32.85792,-31.78285 -6.18114,-1.45591 -12.64256,-1.66854 -18.91573,-0.70427 20.89334,-5.65671 44.66784,6.28201 52.99996,26.20491 7.05295,14.4356 5.3581,32.44755 -4.25999,45.29978 -8.56376,12.40301 -23.33811,19.87418 -38.37678,19.75429 -1.70958,0.0233 -3.42021,-0.0339 -5.12453,-0.16962 z m 2.11745,-20.3379 c -14.42095,-1.34659 -25.68017,-17.37375 -20.51069,-31.28669 0.8155,-3.29985 5.53784,-9.77265 7.73023,-8.22564 -0.98002,6.47922 -5.99017,12.34231 -3.98003,19.20646 2.27732,11.53333 15.50603,18.8558 26.5582,15.03374 12.63503,-3.73698 19.54149,-19.43749 13.69982,-31.2678 -4.28133,-9.95146 -15.59277,-15.84693 -26.19454,-14.17757 4.20775,-2.02224 13.28222,-0.85852 18.47463,2.27849 11.7901,6.17545 17.65032,22.34764 10.9672,34.24189 -4.99199,9.79664 -15.88822,15.34345 -26.74482,14.19712 z"
         id="path3320"
         inkscape:connector-curvature="0" />
      <path
         style="fill:#2c1415"
         d="m -269.83702,-470.22248 c -20.14063,-2.21537 -37.96908,-19.17485 -39.74121,-39.60798 -1.39454,-12.93441 3.1824,-27.0066 13.73948,-35.07892 -0.53477,3.64528 -4.65979,9.3244 -5.8037,14.20564 -5.89046,12.949 -4.30303,29.03186 4.65977,40.20138 11.11053,15.00734 32.94368,20.32109 49.78245,12.30872 5.71296,-1.5814 13.53623,-9.7787 15.51653,-10.76062 -2.86972,1.44751 -5.12846,8.89038 -0.33991,4.64918 2.9317,-2.75088 3.24613,-1.58385 0.5282,0.67752 -9.77563,10.1748 -24.47731,14.58464 -38.34161,13.40508 z m 2.11745,-20.3379 c -14.7255,-1.34293 -26.19562,-18.19332 -20.1402,-32.1761 0.55087,-2.90544 5.9476,-9.51378 7.24949,-6.78626 -2.45072,7.25516 -6.5268,15.42681 -2.42997,22.90348 4.87189,10.87992 19.62428,15.15686 29.62308,8.68255 3.13454,-0.95651 6.7573,-6.96104 4.58304,-1.18054 1.5387,3.14374 6.11607,-2.58513 2.60628,1.27882 -5.50722,5.60709 -13.78108,7.97272 -21.49172,7.27805 z"
         id="path3318"
         inkscape:connector-curvature="0" />
      <path
         style="fill:#110f0f"
         d="m -269.10103,-470.644 c -14.74562,-1.81703 -28.76601,-10.46928 -35.52644,-23.92616 -8.20123,-15.49154 -6.20052,-36.84293 7.41926,-48.67861 2.08367,0.37316 -3.26362,7.26751 -3.69326,10.04609 -4.57612,9.63383 -6.38662,20.90531 -2.62755,31.12402 5.64606,18.07298 24.95382,30.10566 43.65736,28.04705 3.28863,-3.0857 10.26501,1.37105 3.6165,2.52613 -4.22608,0.80633 -8.5503,1.08309 -12.84587,0.86148 z m 1.30263,-20.44132 c -11.7914,-1.48974 -22.07194,-12.17831 -21.31198,-24.37694 0.15469,-5.76164 2.79659,-11.73744 7.87956,-14.76773 -0.6569,7.47673 -6.58528,14.64584 -2.80197,22.28362 3.32506,9.65726 14.26967,15.10276 24.08688,13.45501 4.54092,4.43464 -5.71214,3.63593 -7.85249,3.40604 z"
         id="path3316"
         inkscape:connector-curvature="0" />
    </g>
    <path
       inkscape:connector-curvature="0"
       inkscape:export-ydpi="3.2441967"
       inkscape:export-xdpi="3.2441967"
       inkscape:export-filename="/Users/rutz/Desktop/Cogwheel/path4947.png"
       style="fill:#000000;fill-opacity:1;fill-rule:evenodd;stroke:#000000;stroke-width:1.10452855;stroke-linecap:butt;stroke-linejoin:miter;stroke-miterlimit:4;stroke-opacity:1;stroke-dasharray:none"
       d="m 132.69865,748.64043 -4.28507,38.96609 0.92251,4.63789 -32.054489,21.43853 -3.93696,-2.63058 -37.65265,-10.95142 -13.09869,19.60359 24.52009,30.56173 3.97081,2.62385 0.006,0.0338 -7.53991,37.81866 -4.63791,0.92254 -34.360117,18.87058 4.592467,23.08795 38.96608,4.28507 4.6379,-0.92253 21.43854,32.05452 c 0.004,0.009 4.9e-4,0.0268 0.006,0.0339 l -2.66445,3.94367 -10.95814,37.61883 19.603589,13.0987 30.5956,-24.52688 2.63057,-3.93695 37.81868,7.53993 0.92926,4.6717 18.86383,34.3263 23.1218,-4.5992 4.29184,-38.93224 -0.92928,-4.67177 32.05452,-21.43852 c 0.009,-0.004 0.0272,10e-4 0.0339,-0.006 l 3.94367,2.66444 37.61208,10.9243 13.09869,-19.60359 -24.51337,-30.52788 -3.94368,-2.66444 7.49931,-37.8458 4.7056,-0.93601 34.29243,-18.8571 -4.59247,-23.08794 -38.89837,-4.29855 -4.70561,0.93599 -21.41142,-32.09507 2.62384,-3.97082 10.96488,-37.58495 -19.60358,-13.09869 -30.56847,24.48625 -2.62385,3.97081 c -0.01,-0.003 -0.0243,0.009 -0.0339,0.006 l -37.81867,-7.5399 -0.92252,-4.63791 -18.87059,-34.36014 -23.12179,4.59922 z m 21.38359,58.67114 c 0.73462,-0.16556 1.49152,-0.29668 2.23433,-0.44444 47.54023,-9.45633 93.71617,21.39745 103.17249,68.93765 9.45633,47.54022 -21.39071,93.75 -68.9309,103.20636 -47.54025,9.45633 -93.756739,-21.42457 -103.213099,-68.96479 -9.30855,-46.7974 20.458169,-92.30426 66.737179,-102.73478 z m 13.42597,55.81973 c -16.44617,3.27135 -27.13647,19.27049 -23.8651,35.71668 3.27133,16.44618 19.27048,27.13647 35.71668,23.86512 16.44615,-3.27135 27.1026,-19.26376 23.83126,-35.70995 -3.27137,-16.44618 -19.23664,-27.1432 -35.68284,-23.87185 z"
       id="path4949" />
    <path
       sodipodi:type="arc"
       style="fill:#ffffff;fill-opacity:0.50196078;fill-rule:evenodd;stroke:none"
       id="path3107"
       sodipodi:cx="-53.169857"
       sodipodi:cy="-782.90686"
       sodipodi:rx="78.598915"
       sodipodi:ry="78.598915"
       d="m 25.429058,-782.90686 c 0,43.40898 -35.1899329,78.59891 -78.598915,78.59891 -43.408982,0 -78.598913,-35.18993 -78.598913,-78.59891 0,-43.40898 35.189931,-78.59892 78.598913,-78.59892 43.4089821,0 78.598915,35.18994 78.598915,78.59892 z"
       transform="matrix(1.0539216,0,0,1.0539216,496.42793,1671.3718)" />
    <path
       inkscape:export-ydpi="3.2441967"
       inkscape:export-xdpi="3.2441967"
       inkscape:export-filename="/Users/rutz/Desktop/Cogwheel/path4947.png"
       id="path4951"
       d="m 356.33856,740.40158 9.91626,34.0777 2.37853,3.55972 -19.38414,29.03805 -4.20447,-0.83632 -35.28874,3.88516 -4.16435,20.93563 31.09841,17.06784 4.23044,0.81896 0.0168,0.0261 6.79621,34.24565 -3.55974,2.37854 -22.20237,27.6889 11.84058,17.72072 34.0777,-9.91628 3.55973,-2.37851 29.03806,19.38413 c 0.007,0.004 0.01,0.0221 0.0168,0.0261 l -0.86231,4.22182 3.86778,35.26276 20.93561,4.16438 17.09382,-31.1158 0.83633,-4.20445 34.24563,-6.7962 2.39589,3.58573 27.67153,22.17642 17.74665,-11.85796 -9.89886,-34.05173 -2.3959,-3.58572 19.38413,-29.03804 c 0.004,-0.007 0.0231,-0.009 0.0261,-0.0168 l 4.22181,0.8623 35.24539,-3.89377 4.16436,-20.93565 -31.08103,-17.04186 -4.22184,-0.86229 -6.83958,-34.25427 3.61169,-2.41326 22.15041,-27.65419 -11.84057,-17.72069 -34.02571,9.88152 -3.61171,2.41325 -29.02939,-19.42748 0.81896,-4.23045 -3.85043,-35.2368 -20.93561,-4.16435 -17.08521,31.07245 -0.81896,4.23044 c -0.009,5.7e-4 -0.0177,0.0151 -0.0261,0.0168 l -34.24562,6.7962 -2.37854,-3.55974 -27.6889,-22.20238 -17.74671,11.85796 z m 38.21392,41.66657 c 0.55709,-0.393 1.14479,-0.76492 1.71491,-1.14588 36.48854,-24.38086 85.80206,-14.57178 110.18292,21.91676 24.38085,36.48857 14.58914,85.8281 -21.89937,110.20898 -36.48854,24.38086 -85.84542,14.56316 -110.22629,-21.92539 -23.99991,-35.91843 -14.86826,-84.29572 20.22783,-109.05447 z m 30.56982,42.03857 c -12.62293,8.43438 -16.02158,25.52066 -7.5872,38.1436 8.43435,12.62296 25.52061,16.02161 38.14355,7.58723 12.62295,-8.43436 15.99563,-25.50329 7.56126,-38.12623 -8.43439,-12.62295 -25.49467,-16.03897 -38.11761,-7.6046 z"
       style="fill:#000000;fill-opacity:1;fill-rule:evenodd;stroke:#000000;stroke-width:1;stroke-linecap:butt;stroke-linejoin:miter;stroke-miterlimit:4;stroke-opacity:1;stroke-dasharray:none"
       inkscape:connector-curvature="0" />
    <path
       inkscape:connector-curvature="0"
       inkscape:export-ydpi="3.2441967"
       inkscape:export-xdpi="3.2441967"
       style="fill:#000000;fill-opacity:1;fill-rule:evenodd;stroke:#000000;stroke-width:1.18817806;stroke-linecap:butt;stroke-linejoin:miter;stroke-miterlimit:4;stroke-opacity:1;stroke-dasharray:none"
       d="m 132.83096,666.60091 41.91712,4.60959 4.98915,-0.99241 23.06219,34.48207 -2.82983,4.23512 -11.78078,40.5042 21.08823,14.09071 32.87628,-26.3771 2.82258,-4.27152 0.0367,-0.006 40.68274,8.11097 0.99243,4.9891 20.29972,36.96236 24.83644,-4.94025 4.60956,-41.91716 -0.99235,-4.9891 34.4821,-23.06219 c 0.007,-0.004 0.0289,-6e-4 0.0365,-0.006 l 4.24236,2.8662 40.46777,11.78804 14.09073,-21.0882 -26.38434,-32.91271 -4.2351,-2.82983 8.11094,-40.68278 5.02556,-0.99965 36.9259,-20.29244 -4.94753,-24.87286 -41.88068,-4.61688 -5.02555,0.99967 -23.06218,-34.48211 c -0.004,-0.007 7.3e-4,-0.0288 -0.006,-0.0368 l 2.8662,-4.24233 11.75161,-40.46058 -21.08824,-14.09072 -32.83982,26.36986 -2.86623,4.24236 -40.71199,-8.06722 -1.00686,-5.062 -20.28523,-36.88952 -24.83647,4.94029 -4.62409,41.84428 1.00687,5.06201 -34.52576,23.03295 -4.27151,-2.82263 -40.43138,-11.79526 -14.09072,21.08826 26.3407,32.88352 4.27149,2.82254 c -0.003,0.0114 0.009,0.0258 0.006,0.0366 l -8.11091,40.68282 -4.98917,0.99238 -36.96234,20.29971 4.94753,24.87288 z m 63.1145,-23.0031 c -0.17801,-0.79023 -0.31913,-1.60444 -0.47811,-2.4035 -10.17246,-51.1406 23.01796,-100.81356 74.15855,-110.98613 51.14059,-10.17245 100.84999,23.01074 111.02249,74.15136 10.17246,51.14057 -23.04711,100.85722 -74.18771,111.02973 -50.34152,10.01354 -99.29478,-22.00754 -110.51523,-71.79141 z m 60.04715,-14.44274 c 3.51909,17.69172 20.72991,29.19159 38.42161,25.67248 17.69174,-3.51905 29.19157,-20.72988 25.6725,-38.4216 -3.51908,-17.69171 -20.72266,-29.15518 -38.41436,-25.6361 -17.69172,3.51913 -29.19887,20.69353 -25.67973,38.38523 z"
       id="path4953" />
  </g>
</svg>
