<?xml version="1.0" encoding="UTF-8" standalone="no"?>
<!-- Created with Inkscape (http://www.inkscape.org/) -->

<svg
   xmlns:dc="http://purl.org/dc/elements/1.1/"
   xmlns:cc="http://creativecommons.org/ns#"
   xmlns:rdf="http://www.w3.org/1999/02/22-rdf-syntax-ns#"
   xmlns:svg="http://www.w3.org/2000/svg"
   xmlns="http://www.w3.org/2000/svg"
   xmlns:sodipodi="http://sodipodi.sourceforge.net/DTD/sodipodi-0.dtd"
   xmlns:inkscape="http://www.inkscape.org/namespaces/inkscape"
   width="32"
   height="32"
   id="svg3387"
   version="1.1"
   inkscape:version="0.48.4 r9939"
   sodipodi:docname="icon_group0.svg">
  <defs
     id="defs3389" />
  <sodipodi:namedview
     id="base"
     pagecolor="#ffffff"
     bordercolor="#666666"
     borderopacity="1.0"
     inkscape:pageopacity="0.0"
     inkscape:pageshadow="2"
     inkscape:zoom="15.839192"
     inkscape:cx="16.530097"
     inkscape:cy="13.606458"
     inkscape:document-units="px"
     inkscape:current-layer="svg3387"
     showgrid="false"
     inkscape:window-width="1440"
     inkscape:window-height="834"
     inkscape:window-x="0"
     inkscape:window-y="27"
     inkscape:window-maximized="1" />
  <metadata
     id="metadata3392">
    <rdf:RDF>
      <cc:Work
         rdf:about="">
        <dc:format>image/svg+xml</dc:format>
        <dc:type
           rdf:resource="http://purl.org/dc/dcmitype/StillImage" />
        <dc:title />
      </cc:Work>
    </rdf:RDF>
  </metadata>
  <path
     inkscape:connector-curvature="0"
     inkscape:export-ydpi="3.2441967"
     inkscape:export-xdpi="3.2441967"
     inkscape:export-filename="/Users/rutz/Desktop/Cogwheel/path4947.png"
     style="fill:#000000;fill-opacity:1;fill-rule:evenodd;stroke:none;stroke-width:0.06090780000000000;stroke-linecap:butt;stroke-linejoin:miter;stroke-miterlimit:4;stroke-opacity:1;stroke-dasharray:none"
     d="m 6.77607,15.77078 -0.2363,2.14873 0.0509,0.25576 -1.76761,1.18219 -0.2171,-0.14506 -2.0763,-0.6039 -0.72231,1.08102 1.35212,1.68528 0.21897,0.14469 3.3e-4,0.002 -0.41578,2.08546 -0.25575,0.0509 -1.89474,1.04059 0.25324,1.27316 2.14874,0.2363 0.25575,-0.0509 1.1822,1.7676 c 2.2e-4,5.6e-4 2e-5,10e-4 3.3e-4,0.002 l -0.14693,0.21747 -0.60427,2.07444 1.08101,0.72231 1.68716,-1.3525 0.14506,-0.2171 2.08546,0.41578 0.0512,0.25762 1.04022,1.89288 1.27503,-0.25363 0.23666,-2.14686 -0.0512,-0.25762 1.7676,-1.1822 c 5e-4,0 10e-4,6e-5 0.002,-5.5e-4 l 0.21747,0.14693 2.07407,0.60241 0.72231,-1.08102 -1.35176,-1.68342 -0.21746,-0.14693 0.41354,-2.08696 0.25948,-0.0516 1.89101,-1.03985 -0.25324,-1.27315 -2.145,-0.23705 -0.25949,0.0516 -1.1807,-1.76984 0.14468,-0.21897 0.60465,-2.07257 -1.08102,-0.72231 -1.68566,1.35027 -0.14468,0.21896 c -5.6e-4,0 -10e-4,5.5e-4 -0.002,5.5e-4 L 9.14249,17.66791 9.09159,17.41216 8.051,15.51741 6.77598,15.77103 z m 1.17917,3.23534 c 0.0405,-0.009 0.0822,-0.0164 0.12321,-0.0245 2.62154,-0.52147 5.16786,1.17993 5.68931,3.80147 0.52146,2.62154 -1.17956,5.16972 -3.8011,5.69118 -2.62155,0.52146 -5.1701,-1.18143 -5.69156,-3.80297 -0.5133,-2.58058 1.12814,-5.09 3.68014,-5.66518 z m 0.74036,3.07811 c -0.90691,0.18039 -1.49641,1.06264 -1.31601,1.96955 0.18039,0.9069 1.06264,1.4964 1.96955,1.31601 0.9069,-0.18039 1.49454,-1.06227 1.31414,-1.96918 C 10.48289,22.49371 9.6025,21.90383 8.6956,22.08423 z"
     id="path4949" />
  <path
     inkscape:connector-curvature="0"
     inkscape:export-ydpi="3.2441967"
     inkscape:export-xdpi="3.2441967"
     inkscape:export-filename="/Users/rutz/Desktop/Cogwheel/path4947.png"
     id="path4951"
     d="m 19.1084,15.31646 0.54682,1.87917 0.13116,0.19629 -1.06891,1.60126 -0.23185,-0.0461 -1.94595,0.21424 -0.22964,1.15447 1.71488,0.94119 0.23328,0.0452 9.3e-4,0.001 0.37477,1.88843 -0.1963,0.13116 -1.22432,1.52687 0.65293,0.97718 1.87917,-0.54682 0.1963,-0.13116 1.60127,1.06892 c 3.8e-4,0 5.5e-4,0.001 9.2e-4,0.001 l -0.0476,0.23281 0.21329,1.94452 1.15446,0.22964 0.94262,-1.71584 0.0461,-0.23185 1.88843,-0.37477 0.13212,0.19773 1.52591,1.22289 0.97862,-0.65389 -0.54586,-1.87774 -0.13212,-0.19773 1.06891,-1.60126 c 2.2e-4,-5.5e-4 10e-4,-5.5e-4 10e-4,-9.4e-4 l 0.23281,0.0476 1.94356,-0.21472 0.22964,-1.15447 -1.71393,-0.93975 -0.23281,-0.0476 -0.37716,-1.88891 0.19917,-0.13307 1.22145,-1.52496 -0.65293,-0.97718 -1.8763,0.5449 -0.19917,0.13308 -1.60079,-1.0713 0.0452,-0.23329 -0.21232,-1.94309 -1.15447,-0.22963 -0.94214,1.71344 -0.0452,0.23329 c -5e-4,3e-5 -9.8e-4,8.3e-4 -0.001,9.4e-4 l -1.88843,0.37476 -0.13116,-0.1963 -1.52687,-1.22431 -0.97862,0.65389 z m 2.10726,2.29764 c 0.0307,-0.0217 0.0631,-0.0422 0.0946,-0.0632 2.01211,-1.34446 4.73144,-0.80355 6.07589,1.20857 1.34445,2.01211 0.8045,4.73288 -1.20761,6.07733 -2.01211,1.34445 -4.73384,0.80306 -6.07829,-1.20905 -1.32344,-1.98067 -0.81989,-4.64838 1.11544,-6.01367 z m 1.68573,2.31817 c -0.69607,0.4651 -0.88349,1.4073 -0.41838,2.10337 0.4651,0.69608 1.4073,0.8835 2.10337,0.41839 0.69608,-0.4651 0.88206,-1.40635 0.41696,-2.10242 -0.4651,-0.69607 -1.40587,-0.88445 -2.10195,-0.41934 z"
     style="fill:#000000;fill-opacity:1;fill-rule:evenodd;stroke:none;stroke-width:0.05514371000000000;stroke-linecap:butt;stroke-linejoin:miter;stroke-miterlimit:4;stroke-opacity:1;stroke-dasharray:none" />
  <path
     inkscape:connector-curvature="0"
     inkscape:export-ydpi="3.2441967"
     inkscape:export-xdpi="3.2441967"
     style="fill:#000000;fill-opacity:1;fill-rule:evenodd;stroke:none;stroke-width:0.06552055000000000;stroke-linecap:butt;stroke-linejoin:miter;stroke-miterlimit:4;stroke-opacity:1;stroke-dasharray:none"
     d="m 6.78337,11.24682 2.31146,0.25418 0.27512,-0.0547 1.27174,1.90147 -0.15605,0.23354 -0.64964,2.23355 1.16289,0.77701 1.81292,-1.45453 0.15564,-0.23555 0.002,-5.5e-4 2.24339,0.44727 0.0547,0.27512 1.1194,2.03824 1.36958,-0.27242 0.25418,-2.31147 -0.0547,-0.27512 1.90147,-1.27173 c 3.9e-4,0 0.002,-4e-5 0.002,-5.6e-4 l 0.23393,0.15806 2.23155,0.65004 0.77701,-1.16288 -1.45493,-1.81493 -0.23354,-0.15605 0.44727,-2.2434 0.27713,-0.0551 2.03623,-1.11899 -0.27283,-1.37159 -2.30945,-0.25459 -0.27713,0.0551 -1.27173,-1.90147 c -2.2e-4,-5.6e-4 4e-5,-0.002 -3.3e-4,-0.002 L 20.2007,4.07884 20.84873,1.84769 19.68584,1.07068 17.87493,2.52481 17.71688,2.75875 15.47187,2.31389 15.41637,2.03475 14.29776,5.3e-4 12.92819,0.27296 12.6732,2.58041 12.7287,2.85954 10.82482,4.12966 10.58928,3.97402 8.35974,3.32358 7.58273,4.48647 9.03525,6.29978 9.2708,6.45543 c -1.7e-4,6.1e-4 4.9e-4,0.001 3.3e-4,0.002 l -0.44727,2.2434 -0.27512,0.0547 -2.03824,1.1194 0.27282,1.37158 z m 3.48036,-1.26848 c -0.01,-0.0436 -0.0176,-0.0885 -0.0264,-0.13254 -0.56095,-2.82008 1.26929,-5.55923 4.08938,-6.12019 2.82008,-0.56094 5.56124,1.2689 6.12219,4.08899 0.56094,2.82008 -1.27091,5.56164 -4.09099,6.12258 -2.77602,0.55219 -5.47548,-1.21357 -6.09422,-3.95884 z m 3.31123,-0.79643 c 0.19405,0.97559 1.14312,1.60973 2.11871,1.41568 C 16.66925,10.40353 17.3034,9.45446 17.10934,8.47888 16.91529,7.50329 15.96662,6.87115 14.99103,7.06521 14.01544,7.25926 13.3809,8.20633 13.57496,9.18191 z"
     id="path4953" />
</svg>
